<svg width="380" height="267" viewBox="0 0 380 267" fill="none" xmlns="http://www.w3.org/2000/svg">
<path d="M362.2 79.2541C363.961 86.7509 363.242 94.6165 360.152 101.67C359.999 102.065 359.759 102.421 359.449 102.711C359.14 103.001 358.77 103.218 358.366 103.346C358.366 104.882 355.442 120.206 354.446 127.266C357.046 129.866 359.876 138.142 358.91 144.954C355.762 167.198 322.436 169.828 299.92 170.18C298.766 174.38 293.372 197.936 291.72 205.78C286.624 230.104 284.096 247.864 282.812 253.508C281.966 256.039 281.919 258.77 282.68 261.328C282.879 261.934 283.206 262.489 283.638 262.958C284.071 263.427 284.598 263.797 285.186 264.045C285.773 264.293 286.407 264.411 287.044 264.394C287.681 264.376 288.307 264.222 288.88 263.942C292.044 262.1 295.188 246.378 295.392 245.342C300.286 220.486 303.22 201.708 306.792 178.742C305.274 178.939 303.73 178.752 302.304 178.196C302.201 178.13 302.119 178.037 302.067 177.926C302.015 177.815 301.996 177.692 302.012 177.571C302.028 177.449 302.078 177.335 302.157 177.242C302.236 177.148 302.339 177.079 302.456 177.042C303.468 176.856 304.509 176.893 305.506 177.15C311.092 177.768 330.772 178.164 341.842 177.936C349.572 177.776 358.468 175.936 360.532 168.524C361.224 166.04 379.986 109.924 379.986 97.6181C380 84.8141 371.252 77.3881 362.2 79.2541ZM368.3 119.336C363.854 136.628 363.368 140.198 361.874 142.624C361.826 142.699 361.755 142.756 361.672 142.787C361.589 142.819 361.497 142.822 361.412 142.798C361.327 142.774 361.251 142.722 361.197 142.652C361.143 142.581 361.113 142.495 361.112 142.406C361.205 140.125 361.608 137.868 362.312 135.696C362.806 133.798 365.712 122.014 366.756 118.028C370.29 104.596 373.216 96.8381 369.174 83.3061C369.148 83.2194 369.156 83.1262 369.194 83.0444C369.233 82.9627 369.301 82.898 369.384 82.8629C369.467 82.8278 369.561 82.8246 369.646 82.854C369.732 82.8833 369.804 82.9432 369.848 83.0221C376.4 93.1261 370.448 110.988 368.302 119.336H368.3Z" fill="#38A1FF"/>
<path d="M356.778 175.952C354.312 177.429 351.568 178.382 348.718 178.752C350.802 189.904 359.784 237.048 363.356 249.288C365.126 255.346 366.93 265.434 372.68 262.772C378.146 260.242 374.838 252.402 373.988 248.198C369.2 224.49 363.84 199.168 356.778 175.952Z" fill="#38A1FF"/>
<path d="M273.89 264.788C266.798 264.26 273.622 264.668 167.584 263.46C165.83 245.334 166.75 239.026 165.784 142.06C192.272 141.93 260.284 141.544 267.784 141.408C267.989 141.408 268.186 141.327 268.331 141.182C268.476 141.036 268.558 140.84 268.558 140.634C268.558 140.429 268.476 140.232 268.331 140.087C268.186 139.942 267.989 139.86 267.784 139.86C240.882 139.394 172.066 139.66 164.572 139.642C164.25 139.649 163.944 139.78 163.717 140.007C163.489 140.234 163.359 140.541 163.352 140.862C163.352 141.16 163.552 246.848 165.53 264.552C165.536 264.84 165.652 265.114 165.855 265.317C166.059 265.52 166.333 265.637 166.62 265.642C194.394 265.784 265.956 266.976 273.906 266.534C274.137 266.532 274.359 266.438 274.521 266.273C274.683 266.108 274.773 265.885 274.771 265.653C274.769 265.422 274.675 265.2 274.51 265.038C274.344 264.876 274.122 264.786 273.89 264.788Z" fill="white"/>
<path d="M269.708 142.428C269.576 141.752 268.548 141.926 268.53 142.58C268.414 147.264 269.486 154.636 270.906 188.282C271.55 203.552 272.972 256.282 273.432 260.802C273.432 260.99 273.507 261.17 273.639 261.303C273.772 261.436 273.952 261.51 274.14 261.51C274.328 261.51 274.508 261.436 274.641 261.303C274.773 261.17 274.848 260.99 274.848 260.802C274.954 256.848 272.8 158.454 269.708 142.428Z" fill="white"/>
<path d="M165.6 138.188C169.638 135.941 173.514 133.415 177.2 130.628C181.012 127.992 203.838 112.216 205.738 110.892C209.81 108.05 208.442 108.604 222.51 108.604C223.78 108.698 225.057 108.631 226.31 108.404C226.466 108.356 226.602 108.259 226.699 108.128C226.796 107.996 226.849 107.837 226.849 107.674C226.849 107.511 226.796 107.352 226.699 107.221C226.602 107.089 226.466 106.992 226.31 106.944C225.27 106.688 225.426 106.744 212.586 106.744C207.444 106.744 207.01 107.744 201.236 111.776C168.26 134.866 167.554 135.138 165.01 137.504C164.664 137.83 165.166 138.388 165.6 138.188Z" fill="white"/>
<path d="M230.584 110.774C231.732 114.508 231.522 113.008 240.996 113.258C241.737 113.346 242.486 113.317 243.218 113.172C244.618 112.748 245.018 111.21 245.526 110.012C247.728 104.796 249.258 99.3204 250.08 93.7181C250.116 93.5735 250.119 93.4226 250.09 93.2765C250.06 93.1304 249.998 92.9927 249.908 92.8737C249.819 92.7546 249.703 92.6571 249.571 92.5883C249.439 92.5196 249.293 92.4812 249.144 92.4761C246.158 92.4761 243.144 92.4541 240.144 92.4321C240.646 87.6421 240.886 82.8283 240.864 78.0121C240.854 77.83 240.787 77.6555 240.674 77.5124C240.561 77.3692 240.407 77.2644 240.232 77.2121C240.015 77.1545 239.785 77.1837 239.589 77.2935C239.394 77.4034 239.249 77.5851 239.186 77.8001C238.916 80.2516 238.813 82.7187 238.88 85.1841C238.764 87.6094 238.801 90.0395 238.99 92.4601H236.376C234.392 81.5461 234.87 80.0361 233.914 73.2461C233.832 72.6581 232.936 72.8341 232.914 73.3781C232.782 79.7955 233.396 86.2066 234.744 92.4821C234.344 92.4821 233.982 92.4821 233.59 92.5041C233.59 92.3161 231.56 85.5041 231.368 84.8581C230.754 82.4269 229.938 80.0512 228.928 77.7561C228.876 77.673 228.799 77.6085 228.709 77.5721C228.618 77.5356 228.518 77.5291 228.423 77.5534C228.328 77.5777 228.244 77.6316 228.182 77.7073C228.12 77.7829 228.083 77.8764 228.078 77.9741C228.895 82.9236 230.141 87.7927 231.802 92.5261C230.91 92.5481 230.016 92.5641 229.146 92.5921C228.897 92.6034 228.661 92.7105 228.489 92.891C228.316 93.0714 228.22 93.3115 228.22 93.5611C228.22 93.8108 228.316 94.0508 228.489 94.2313C228.661 94.4117 228.897 94.5188 229.146 94.5301C235.42 94.6601 241.692 94.5301 247.966 94.4421C247.156 99.9112 245.633 105.251 243.436 110.324C243.218 110.824 243.09 111.38 242.478 111.524C242.036 111.626 242.612 111.458 238.164 111.458C231.49 111.458 232.81 112.382 232.174 110.326C231.654 108.648 227.834 96.2181 226.974 94.3141C226.668 93.6401 225.748 94.1621 225.864 94.7941C226.138 96.3261 230.128 109.292 230.584 110.774Z" fill="white"/>
<path d="M277.2 106.81C274.914 106.576 272.613 106.518 270.318 106.636C251.484 106.888 250.18 106.92 248.032 107.312C247.552 107.398 247.532 108.22 248.032 108.292C252.784 108.978 272.334 108.14 276.068 108.492C271.294 128.692 268.468 135.15 268.4 137.878C268.405 138.002 268.449 138.121 268.526 138.217C268.603 138.314 268.71 138.383 268.829 138.415C268.949 138.447 269.075 138.439 269.19 138.394C269.305 138.348 269.403 138.267 269.468 138.162C271.356 135.328 277.136 112.362 278.094 107.962C278.124 107.826 278.123 107.686 278.092 107.55C278.062 107.414 278.002 107.287 277.916 107.177C277.831 107.067 277.723 106.977 277.599 106.914C277.475 106.851 277.339 106.815 277.2 106.81Z" fill="white"/>
<path d="M199.932 120.622C200.388 120.184 199.82 119.502 199.28 119.772C195.022 121.888 187.182 129.09 183.68 132.32C183.567 132.441 183.491 132.592 183.462 132.754C183.432 132.917 183.451 133.085 183.516 133.237C183.581 133.39 183.688 133.52 183.826 133.612C183.963 133.704 184.125 133.754 184.29 133.756C187.67 133.894 215.348 134.702 221.104 134.454C221.302 134.444 221.489 134.358 221.626 134.214C221.762 134.071 221.839 133.88 221.839 133.681C221.839 133.483 221.762 133.292 221.626 133.148C221.489 133.004 221.302 132.918 221.104 132.908C215.006 132.508 208.818 132.61 202.704 132.472C197.258 132.348 191.834 132.124 186.388 132.058C192.682 126.118 196.6 123.836 199.932 120.622Z" fill="white"/>
<path d="M222.936 133.954C225.392 132.11 227.708 130.086 229.864 127.898C232.187 125.774 234.503 123.646 236.814 121.514C236.929 121.392 237.007 121.239 237.038 121.073C237.069 120.908 237.052 120.737 236.989 120.581C236.926 120.425 236.819 120.29 236.682 120.193C236.544 120.096 236.382 120.04 236.214 120.032C231.506 119.632 203.582 117.662 200.226 118.814C200.115 118.846 200.018 118.913 199.949 119.006C199.879 119.098 199.842 119.21 199.842 119.325C199.842 119.44 199.879 119.553 199.949 119.645C200.018 119.737 200.115 119.804 200.226 119.836C201.624 120.114 203.053 120.202 204.474 120.098C216.002 120.274 222.84 120.774 234.144 121.602C224.614 130.434 224.038 130.354 222.054 132.82C221.576 133.4 222.218 134.434 222.936 133.954Z" fill="white"/>
<path d="M209.43 122.016C207.756 123.162 206.368 124.37 202.808 127.308C202.176 127.83 201.48 128.224 201.262 129.052C201.241 129.13 201.238 129.212 201.252 129.291C201.267 129.371 201.3 129.446 201.348 129.511C201.396 129.575 201.459 129.629 201.53 129.666C201.602 129.703 201.681 129.724 201.762 129.726C202.69 129.676 203.148 129.142 205.88 126.874C207.41 125.672 208.831 124.337 210.128 122.886C210.508 122.438 210 121.626 209.43 122.016Z" fill="white"/>
<path d="M209.866 129.138C210.97 128.896 211.516 128.256 215.792 123.938C216.094 123.632 215.702 123.062 215.312 123.306C214.137 124.059 213.002 124.874 211.912 125.746C210.789 126.422 209.882 127.405 209.298 128.578C209.17 128.9 209.54 129.21 209.866 129.138Z" fill="white"/>
<path d="M221.412 123.104C219.972 124.234 218.594 125.362 217.272 126.612C216.272 127.564 214.422 128.812 214.158 130.228C214.139 130.303 214.14 130.382 214.16 130.457C214.181 130.532 214.221 130.6 214.276 130.655C214.33 130.709 214.398 130.749 214.473 130.77C214.548 130.79 214.627 130.791 214.702 130.772C216.136 130.53 217.464 128.742 218.45 127.772C219.75 126.482 220.93 125.156 222.11 123.786C222.155 123.74 222.19 123.686 222.214 123.627C222.238 123.567 222.25 123.504 222.249 123.44C222.248 123.375 222.235 123.312 222.21 123.253C222.184 123.194 222.148 123.141 222.102 123.096C222.056 123.051 222.002 123.016 221.942 122.992C221.883 122.968 221.819 122.957 221.755 122.957C221.691 122.958 221.628 122.971 221.569 122.997C221.51 123.022 221.457 123.058 221.412 123.104Z" fill="white"/>
<path d="M85.9359 49.7881C86.0667 49.6404 86.1636 49.4659 86.2198 49.2767C86.276 49.0876 86.2901 48.8884 86.2611 48.6933C86.2321 48.4981 86.1608 48.3117 86.0521 48.147C85.9434 47.9823 85.8 47.8435 85.6319 47.7401C85.4478 47.6113 85.2303 47.5384 85.0057 47.5301C84.7811 47.5218 84.5589 47.5785 84.3657 47.6933C84.1725 47.8082 84.0166 47.9763 83.9166 48.1776C83.8166 48.3789 83.7768 48.6048 83.8019 48.8281C83.7664 49.0889 83.8162 49.3543 83.9438 49.5845C84.0715 49.8147 84.2702 49.9975 84.5103 50.1054C84.7503 50.2134 85.0189 50.2409 85.2758 50.1837C85.5328 50.1265 85.7643 49.9877 85.9359 49.7881Z" fill="white"/>
<path d="M105.8 76.5082C104.981 75.9724 104.01 75.7201 103.034 75.7902C99.5977 75.5804 96.1498 75.9111 92.816 76.7702C92.292 76.9382 92.36 77.8142 92.948 77.7702C102.368 77.0922 104.368 78.1482 105.69 77.4642C105.768 77.4146 105.833 77.3483 105.882 77.2702C105.931 77.192 105.962 77.1039 105.972 77.0123C105.983 76.9208 105.973 76.828 105.943 76.7408C105.913 76.6536 105.864 76.5741 105.8 76.5082Z" fill="white"/>
<path d="M100.8 79.4922C98.7009 79.3649 96.6002 79.715 94.6559 80.5162C94.5514 80.5797 94.4703 80.6755 94.4249 80.7891C94.3796 80.9027 94.3724 81.028 94.4044 81.146C94.4365 81.2641 94.506 81.3686 94.6026 81.4436C94.6992 81.5187 94.8176 81.5603 94.9399 81.5622C97.0739 81.5002 99.2099 81.3622 101.322 81.3002C104.512 81.2102 105.198 81.3282 105.832 80.5002C105.893 80.4015 105.918 80.2844 105.902 80.1692C105.886 80.0541 105.83 79.9482 105.744 79.8702C105.218 79.2402 104.712 79.2482 100.8 79.4922Z" fill="white"/>
<path d="M278.138 138.376C280.416 136.045 283.227 134.303 286.328 133.3C292.042 131.22 306.076 127.32 308.2 126.286C309.414 125.566 310.316 124.42 310.731 123.07C311.146 121.721 311.044 120.266 310.444 118.988C310.414 118.893 310.352 118.812 310.268 118.758C310.184 118.704 310.083 118.682 309.985 118.695C309.886 118.708 309.795 118.755 309.727 118.828C309.66 118.902 309.62 118.997 309.616 119.096C309.815 120.648 309.643 122.224 309.114 123.696C308.224 125.246 305.978 125.506 304.41 125.984C300.684 127.12 296.976 128.236 293.256 129.36C287.79 131.012 278.95 132.976 277.18 137.856C276.982 138.388 277.75 138.684 278.138 138.376Z" fill="white"/>
<path d="M321.988 46.4901C322.118 46.3497 322.205 46.1751 322.238 45.9869C322.272 45.7987 322.251 45.6048 322.177 45.4283C322.104 45.2517 321.982 45.0998 321.825 44.9906C321.668 44.8814 321.483 44.8195 321.292 44.8121C321.163 44.8116 321.035 44.8366 320.916 44.8857C320.797 44.9347 320.689 45.0069 320.598 45.098C320.507 45.1891 320.435 45.2973 320.386 45.4165C320.336 45.5356 320.311 45.6633 320.312 45.7921C320.314 45.9853 320.373 46.1737 320.481 46.3338C320.589 46.494 320.742 46.6189 320.92 46.6932C321.098 46.7675 321.295 46.7878 321.484 46.7517C321.674 46.7156 321.849 46.6247 321.988 46.4901Z" fill="white"/>
<path d="M328.72 45.7501C328.486 45.7501 328.262 45.843 328.096 46.0085C327.931 46.1739 327.838 46.3982 327.838 46.6321C327.838 46.866 327.931 47.0904 328.096 47.2558C328.262 47.4212 328.486 47.5141 328.72 47.5141C328.954 47.5141 329.178 47.4212 329.344 47.2558C329.509 47.0904 329.602 46.866 329.602 46.6321C329.602 46.3982 329.509 46.1739 329.344 46.0085C329.178 45.843 328.954 45.7501 328.72 45.7501Z" fill="white"/>
<path d="M324.232 53.2441C324.36 53.2415 324.484 53.2017 324.589 53.1296C324.694 53.0575 324.776 52.9562 324.825 52.8381C324.874 52.72 324.887 52.5904 324.863 52.465C324.839 52.3396 324.779 52.2239 324.69 52.1321C324.276 51.7181 322.902 51.4121 323.012 50.7321C324.471 48.913 325.317 46.6792 325.43 44.3501C325.425 44.2297 325.378 44.115 325.296 44.0261C325.215 43.9372 325.105 43.8798 324.985 43.864C324.866 43.8483 324.745 43.8751 324.643 43.9399C324.542 44.0047 324.466 44.1032 324.43 44.2181C323.867 46.4083 322.844 48.4536 321.43 50.2181C320.512 51.7221 322.84 53.4021 324.232 53.2441Z" fill="white"/>
<path d="M327.218 53.3081C325.404 55.5921 323.07 55.3081 321.488 55.9441C321.098 56.1021 320.988 56.7281 321.488 56.8381C322.49 56.9908 323.512 56.9341 324.491 56.6714C325.47 56.4088 326.383 55.9459 327.174 55.3121C327.334 56.6572 327.153 58.0207 326.65 59.2781C326.25 60.1941 325.512 61.2221 324.494 60.3661C323.958 59.8028 323.543 59.1358 323.274 58.4061C322.952 57.7501 322.006 58.1221 321.968 58.7541C322.013 59.368 322.198 59.9636 322.507 60.4958C322.817 61.028 323.243 61.4829 323.754 61.8261C324.223 62.1854 324.806 62.3615 325.395 62.3214C325.984 62.2813 326.538 62.0277 326.954 61.6081C329.02 59.6441 328.766 56.1901 328.392 53.6081C328.359 53.4896 328.296 53.3818 328.208 53.2956C328.12 53.2095 328.011 53.1481 327.892 53.1177C327.773 53.0872 327.648 53.0888 327.529 53.1222C327.411 53.1557 327.304 53.2198 327.218 53.3081Z" fill="white"/>
<path d="M306.892 93.9881C308.954 94.6347 311.122 94.8784 313.276 94.7061C313.425 94.6632 313.556 94.5731 313.649 94.4493C313.742 94.3256 313.792 94.175 313.792 94.0201C313.792 93.8653 313.742 93.7147 313.649 93.5909C313.556 93.4672 313.425 93.3771 313.276 93.3341C311.513 93.2111 309.76 92.978 308.026 92.6361C309.962 84.2361 313.126 71.7961 321.596 69.9381C322.186 69.8081 322.032 68.9381 321.466 68.9141C316.544 68.7541 313.164 73.7701 311.184 77.6701C308.924 82.5643 307.292 87.7245 306.326 93.0281C306.277 93.2303 306.309 93.4437 306.414 93.6229C306.52 93.8021 306.691 93.9331 306.892 93.9881Z" fill="white"/>
<path d="M316.368 86.7462C316.332 86.6313 316.256 86.5327 316.155 86.468C316.053 86.4032 315.932 86.3763 315.813 86.3921C315.693 86.4079 315.583 86.4653 315.502 86.5542C315.42 86.6431 315.373 86.7578 315.368 86.8782C315.368 89.8622 314.05 92.5842 313.604 95.5042C313.246 97.8562 313.204 101.408 314.78 103.368C314.871 103.455 314.985 103.514 315.108 103.537C315.232 103.56 315.36 103.546 315.475 103.497C315.591 103.449 315.69 103.367 315.761 103.263C315.831 103.158 315.869 103.036 315.87 102.91C315.702 100.602 314.362 99.0362 315.412 94.4142C316.304 91.9627 316.631 89.3416 316.368 86.7462Z" fill="white"/>
<path d="M283.278 99.1882C284.166 100.064 285.588 101.564 286.852 101.736C286.955 101.759 287.063 101.752 287.162 101.716C287.262 101.679 287.349 101.615 287.413 101.531C287.477 101.447 287.516 101.346 287.525 101.241C287.533 101.135 287.512 101.03 287.462 100.936C286.918 99.8022 285.372 99.0602 284.462 98.2362C283.418 97.2962 282.702 96.0941 281.738 95.1201C281.37 94.7481 280.868 95.1422 280.938 95.6002C281.329 97.0091 282.146 98.2625 283.278 99.1882Z" fill="white"/>
<path d="M287.048 97.4862C287.573 98.121 288.178 98.685 288.848 99.1642C288.902 99.1925 288.961 99.2066 289.022 99.2052C289.083 99.2039 289.142 99.1871 289.194 99.1564C289.246 99.1258 289.29 99.0823 289.321 99.0301C289.352 98.9779 289.368 98.9188 289.37 98.8582C289.37 96.6882 287.288 96.7042 283.424 91.3442C283.122 90.9262 282.284 91.1722 282.508 91.7442C283.57 93.9751 285.122 95.9378 287.048 97.4862Z" fill="white"/>
<path d="M289.096 94.3281C290.008 95.3101 291.534 97.3561 293.06 97.2261C293.173 97.22 293.282 97.1821 293.374 97.1167C293.467 97.0513 293.539 96.9611 293.582 96.8565C293.625 96.752 293.638 96.6373 293.619 96.5258C293.6 96.4142 293.55 96.3103 293.474 96.2261C292.98 95.6521 292.214 95.3261 291.644 94.7881C289.368 92.6361 287.862 90.7621 286.264 89.0581C286.183 88.9797 286.076 88.933 285.964 88.9265C285.851 88.9199 285.74 88.9539 285.65 89.0224C285.56 89.0908 285.498 89.1892 285.474 89.2996C285.451 89.41 285.468 89.5251 285.522 89.6241C286.547 91.3121 287.744 92.8887 289.096 94.3281Z" fill="white"/>
<path d="M300.162 102.562C300.209 102.723 300.306 102.865 300.439 102.967C300.572 103.068 300.734 103.125 300.902 103.128C304.189 102.982 307.478 103.372 310.64 104.284C326.142 108.104 332.498 114.42 335.712 115.436C336.042 115.54 336.41 115.132 336.192 114.826C335.245 113.677 334.083 112.723 332.772 112.016C321.504 104.784 307.838 101.236 301.446 101.582C299.794 97.2827 297.204 93.4054 293.866 90.2322C293.5 89.8582 292.804 90.3582 293.126 90.7982C296.106 94.3035 298.483 98.2788 300.162 102.562Z" fill="white"/>
<path d="M310.53 95.6562C310.252 97.1416 310.275 98.6676 310.596 100.144C310.627 100.239 310.686 100.321 310.767 100.379C310.847 100.438 310.944 100.469 311.043 100.469C311.142 100.469 311.239 100.438 311.319 100.379C311.4 100.321 311.459 100.239 311.49 100.144C311.696 98.6565 311.718 97.1491 311.554 95.6562C311.554 95.5204 311.5 95.3901 311.404 95.2941C311.308 95.1981 311.178 95.1442 311.042 95.1442C310.906 95.1442 310.776 95.1981 310.68 95.2941C310.584 95.3901 310.53 95.5204 310.53 95.6562Z" fill="white"/>
<path d="M363.8 70.1042C361.898 68.9622 361.37 66.5722 360.882 64.5702C358.554 55.0082 361.002 48.9702 361.906 41.1962C362.874 32.8542 360.272 20.3622 349.906 19.8262C348.236 19.7511 346.573 20.0687 345.048 20.7533C343.524 21.4379 342.181 22.4705 341.128 23.7682C342.32 24.1199 343.338 24.9046 343.982 25.9682C345.2 28.2062 344.062 29.7902 343.132 29.4742C342.552 29.2742 342.744 28.5882 341.606 27.2742C333.236 17.6102 314.728 26.8462 319.67 38.6242C319.781 38.7926 319.905 38.9524 320.04 39.1022C317.771 44.9895 316.826 51.3046 317.274 57.5982C317.874 61.7642 319.954 66.2442 324.026 66.3342C324.626 68.3242 323.722 68.8422 324.226 69.6662C324.602 70.2842 325.896 70.1002 325.796 67.9022C325.77 67.3258 325.645 66.7582 325.426 66.2242C326.813 65.9312 328.112 65.3144 329.216 64.4242C331.28 62.6519 333.11 60.6243 334.662 58.3902C334.466 60.3253 335.028 62.2611 336.23 63.7902C336.318 63.9348 336.451 64.0469 336.608 64.1096C336.765 64.1724 336.939 64.1824 337.102 64.1382C337.216 64.1075 337.322 64.0506 337.41 63.9721C337.499 63.8937 337.568 63.7957 337.612 63.6859C337.656 63.5761 337.675 63.4576 337.665 63.3397C337.656 63.2217 337.619 63.1076 337.558 63.0062C336.439 61.592 335.826 59.8437 335.816 58.0402C335.818 57.9597 335.802 57.8798 335.767 57.807C335.733 57.7343 335.681 57.6708 335.618 57.6217C335.554 57.5727 335.479 57.5396 335.4 57.525C335.321 57.5105 335.239 57.515 335.162 57.5382C335.299 57.2912 335.423 57.0368 335.532 56.7762C337.626 57.9462 340.342 55.8182 340.108 52.5282C342.636 51.862 344.864 50.3563 346.424 48.2582C346.796 53.9202 347.674 61.1002 350.804 65.7942C347.115 63.9181 342.999 63.0397 338.866 63.2462C338.712 63.2474 338.561 63.2881 338.428 63.3645C338.294 63.4408 338.183 63.5503 338.104 63.6822C336.918 66.6955 334.844 69.2765 332.156 71.0822C330.878 71.8765 329.367 72.2104 327.874 72.0285C326.38 71.8466 324.994 71.1599 323.944 70.0822C323.42 69.5162 322.438 70.2582 322.876 70.9102C323.92 72.2745 325.404 73.2349 327.077 73.628C328.749 74.021 330.506 73.8225 332.048 73.0662C335.39 71.3645 338.01 68.5201 339.432 65.0502C343.264 64.8952 347.062 65.8233 350.39 67.7282C357.822 72.6942 362.758 84.9842 357.034 99.6882C350.245 98.2262 343.3 97.6182 336.36 97.8782C338.24 93.0462 338.986 92.2602 339.738 89.9942C340.018 89.1422 338.868 88.8182 338.408 89.4262C336.679 92.3537 335.221 95.4332 334.052 98.6262C334.014 98.7669 334.01 98.9143 334.038 99.0572C334.066 99.2 334.127 99.3345 334.215 99.4503C334.303 99.5661 334.417 99.6602 334.547 99.7254C334.677 99.7906 334.82 99.825 334.966 99.8262C335.686 99.8022 336.382 99.7842 337.102 99.7622C336.514 101.396 336.102 103.12 335.402 104.728C333.924 108.108 332.926 108.652 332.94 109.98C332.941 110.044 332.957 110.106 332.986 110.163C333.014 110.22 333.055 110.27 333.105 110.31C333.155 110.349 333.213 110.377 333.275 110.391C333.337 110.405 333.402 110.406 333.464 110.392C334.279 109.98 334.915 109.282 335.25 108.432C336.815 105.745 337.919 102.814 338.518 99.7622C343.657 99.7352 348.789 100.158 353.854 101.026C351.828 107.226 348.763 113.038 344.792 118.212C341.792 121.882 337.806 125.654 325.664 122.788C315.692 120.434 307.962 114.164 300.352 107.388C299.106 106.28 292.152 109.166 287.216 106.758C285.683 105.953 284.309 104.875 283.164 103.576C281.184 101.464 281.008 100.612 279.852 100.176C279.762 100.153 279.668 100.151 279.577 100.17C279.487 100.189 279.401 100.228 279.328 100.285C279.255 100.342 279.195 100.414 279.154 100.497C279.113 100.58 279.091 100.672 279.09 100.764C279.214 101.58 279.605 102.331 280.202 102.9C281.857 105.24 284.053 107.145 286.602 108.454C290.511 109.957 294.834 109.98 298.758 108.518C304.229 113.781 310.42 118.241 317.144 121.764C316.158 121.846 316.77 123.268 316.904 125.488C314.398 124.966 312.904 128.488 312.304 131C305.66 132.146 290.412 135.164 283.904 137.536C277.216 139.97 274.2 142.834 271.988 146.206C273.288 157.306 274.422 183.268 274.82 194.806C277.974 204.406 281.884 213.724 286.22 225.762C286.486 226.5 287.72 226.676 287.898 225.762C288.442 222.95 289.026 219.194 289.898 216.35C293.992 223.822 298.238 231.22 302.444 238.636C302.541 238.802 302.689 238.931 302.866 239.006C303.043 239.081 303.24 239.096 303.426 239.05L305.412 238.262C305.692 239.629 306.093 240.967 306.612 242.262C306.109 242.412 305.646 242.674 305.259 243.029C304.872 243.384 304.571 243.822 304.378 244.31C303.425 246.428 302.233 248.431 300.826 250.278C295.964 256.384 292.156 256.678 288.802 259.296C285.448 261.914 286.116 266.06 287.474 266.028C290.176 265.962 292.898 265.78 295.598 265.658C304.898 265.234 304.778 265.908 307.906 260.996C309.086 259.146 310.26 257.314 311.348 255.42C311.392 258.25 311.458 261.06 311.48 263.892C311.485 264.103 311.571 264.303 311.72 264.452C311.869 264.601 312.069 264.687 312.28 264.692C314.28 264.576 316.28 264.346 318.28 264.092C318.451 264.045 318.602 263.942 318.709 263.8C318.815 263.658 318.871 263.484 318.868 263.306C318.95 257.497 318.71 251.689 318.15 245.906C317.992 244.36 318.168 241.054 316.21 240.46C314.106 239.82 316.494 242.55 313.134 235.216C313.314 235.117 313.459 234.965 313.549 234.781C313.64 234.597 313.672 234.389 313.64 234.186C309.366 210.014 305.854 190.846 297.41 169.008C297.563 168.928 297.691 168.808 297.78 168.66C319.844 168.384 354.078 166.278 357.056 144.892C357.786 139.64 355.656 130.214 352.456 128.162C353.566 119.95 355.334 111.866 356.486 103.678C356.511 103.557 356.49 103.431 356.425 103.325C356.361 103.219 356.259 103.141 356.14 103.108C356.02 103.075 355.893 103.088 355.783 103.145C355.673 103.202 355.589 103.299 355.548 103.416C353.206 111.355 351.599 119.493 350.748 127.726C350.246 127.77 349.748 127.884 349.244 127.944C342.81 128.71 321.942 128.376 318.244 126.092C318.244 120.068 314.49 122.06 324.3 124.568C328.997 125.888 333.954 125.986 338.7 124.852C343.336 123.578 346.232 119.512 348.742 115.652C351.765 111.383 353.777 106.481 354.624 101.318C355.494 101.47 356.366 101.642 357.238 101.842C357.483 101.902 357.742 101.866 357.961 101.74C358.18 101.614 358.343 101.409 358.414 101.166C362.58 90.8262 362.662 79.5042 356.014 70.7342C358.332 71.887 360.958 72.2689 363.508 71.8242C363.686 71.7773 363.847 71.6801 363.971 71.5442C364.095 71.4084 364.177 71.2397 364.208 71.0583C364.239 70.8769 364.217 70.6904 364.144 70.5212C364.072 70.352 363.952 70.2073 363.8 70.1042ZM336.018 54.9882C335.468 54.0982 334.08 54.8362 334.472 55.7062C333.162 57.1062 330.802 61.1762 327.61 63.3742C324.308 65.6482 321.256 64.8582 319.61 60.1742C318.606 56.7303 318.435 53.0973 319.11 49.5742C319.54 46.1841 320.141 42.8178 320.91 39.4882C321.212 39.4502 326.932 34.9602 332.238 39.4882C335.306 42.1062 335.558 46.3442 335.07 50.0882C334.976 50.8062 335.482 51.4882 336.27 51.2882C337.812 50.8742 338.618 51.5142 338.534 52.9222C338.492 53.8302 337.056 56.6682 336.018 54.9882ZM347.432 47.2542C347.354 47.3911 347.23 47.4953 347.081 47.5474C346.932 47.5996 346.77 47.5962 346.624 47.5379C346.477 47.4797 346.357 47.3704 346.285 47.2304C346.213 47.0904 346.194 46.9291 346.232 46.7762C347.193 44.0849 347.615 41.2306 347.474 38.3762C347.265 35.4395 346.433 32.5808 345.034 29.9902C344.974 29.8779 344.959 29.7465 344.993 29.6237C345.028 29.5009 345.108 29.3961 345.218 29.3313C345.328 29.2665 345.458 29.2466 345.583 29.2758C345.707 29.3051 345.815 29.3812 345.884 29.4882C349.74 35.1882 349.758 43.2862 347.432 47.2522V47.2542ZM314.032 241.306C313.184 242.548 312.976 242.992 312.456 243.354C312.101 243.654 311.66 243.83 311.197 243.858C310.733 243.886 310.274 243.763 309.886 243.508C309.336 242.925 308.655 242.48 307.9 242.21C307.685 240.678 307.252 239.184 306.614 237.774C313.004 235.242 310.762 236.14 311.888 235.686C313.226 239.136 313.264 240.424 314.024 241.304L314.032 241.306ZM327.618 138.05C327.814 138.06 327.998 138.145 328.133 138.287C328.268 138.429 328.343 138.617 328.343 138.813C328.343 139.009 328.268 139.197 328.133 139.339C327.998 139.481 327.814 139.566 327.618 139.576C311.896 140.244 286.55 142.176 278.756 155.848C273.156 165.668 277.708 180.176 280.956 190.638C284.992 203.638 287.578 208.038 289.714 214.252C289.886 214.752 289.144 215.016 288.886 214.6C284.906 208.2 280.204 194.4 278.102 187.174C275.822 179.35 273.4 171.142 274.574 162.906C276.66 148.258 291.76 141.976 306.29 139.106C313.312 137.758 320.489 137.402 327.61 138.048L327.618 138.05Z" fill="white"/>
<path d="M68.378 43.0041C68.902 42.8941 68.836 42.1561 68.378 42.0041C65.48 41.0301 64.652 45.4261 65.308 47.3641C65.707 48.4821 66.4738 49.4315 67.4828 50.0568C68.4918 50.6821 69.6832 50.9463 70.862 50.8061C71.014 51.9381 71.162 53.0501 71.276 54.1821C71.3188 55.4613 71.4572 56.7355 71.69 57.9941C71.938 58.9501 73.22 58.6481 73.324 57.7761C73.2283 55.0153 72.9443 52.2643 72.474 49.5421C72.4107 49.3158 72.2616 49.1231 72.0584 49.0051C71.8552 48.887 71.6139 48.853 71.386 48.9101C66.72 50.2061 65.12 43.6881 68.378 43.0041Z" fill="white"/>
<path d="M88.746 31.5241C88.464 30.8001 86.926 26.8601 86.504 26.1881C88.3162 24.1101 89.7468 21.7281 90.73 19.1521C91.1731 17.9496 91.2196 16.6368 90.8626 15.4059C90.5056 14.1751 89.7638 13.0909 88.746 12.3121C86.434 10.8361 83.45 11.7381 81.254 13.0081C78.744 14.4601 76.634 16.5341 74.042 17.8441C70.992 19.3861 67.748 18.7601 64.502 19.2161C63.1454 19.3266 61.8435 19.7994 60.7321 20.585C59.6207 21.3706 58.7407 22.4402 58.184 23.6821C55.354 30.2401 59.708 37.5141 63.914 42.3521C64.328 42.9181 65.214 42.2021 64.85 41.6101C62.028 37.0101 58.25 32.2101 59.25 26.4101C59.3784 25.1587 59.9014 23.9805 60.7434 23.0458C61.5854 22.1111 62.7027 21.4682 63.934 21.2101C66.634 20.6101 69.466 21.1661 72.168 20.5361C77.23 19.3521 80.608 14.5121 84.768 13.6081C85.3341 13.436 85.9353 13.4146 86.5123 13.546C87.0892 13.6774 87.6219 13.9571 88.0576 14.3575C88.4933 14.7579 88.817 15.265 88.9967 15.8288C89.1763 16.3926 89.2057 16.9935 89.082 17.5721C88.8669 18.8698 88.3847 20.1086 87.666 21.2101C85.714 24.5501 84.984 25.6501 81.74 26.6341C76.9565 28.0811 72.0364 29.0302 67.058 29.4661C66.514 29.5141 65.846 30.0661 66.122 30.7081C67.522 33.9081 68.628 37.2141 67.102 40.6201C66.77 41.3601 67.688 42.2521 68.302 41.5561C70.884 38.6281 69.784 34.6301 68.454 31.2981C72.904 30.8281 82.63 29.0701 85.554 27.0061C86.342 30.7741 90.7 39.0061 91.436 45.9581C91.7687 47.5077 91.64 49.1209 91.066 50.5981C89.692 53.0921 85.58 53.4941 81.176 54.4521C80.2587 54.5258 79.3677 54.7937 78.562 55.2381C78.4609 55.3028 78.3804 55.395 78.33 55.5038C78.2796 55.6127 78.2613 55.7337 78.2772 55.8526C78.2932 55.9715 78.3428 56.0833 78.4201 56.175C78.4975 56.2667 78.5994 56.3344 78.714 56.3701C81.5073 56.0535 84.274 55.5342 86.992 54.8161C87.918 56.7481 88.206 58.9301 89.214 58.3521C90.18 57.7981 88.752 55.6421 87.944 54.5401C93.826 52.7221 95.588 49.0461 88.746 31.5241Z" fill="white"/>
<path d="M74.152 40.8921C74.4477 41.1585 74.8005 41.3534 75.1834 41.4619C75.5663 41.5704 75.969 41.5895 76.3605 41.5178C76.7519 41.4461 77.1217 41.2855 77.4413 41.0484C77.7609 40.8113 78.0219 40.504 78.204 40.1501C78.51 39.4761 78.656 38.2621 78.03 37.7321C77.9644 37.6685 77.8851 37.6207 77.7982 37.5924C77.7114 37.5641 77.6192 37.556 77.5287 37.5687C77.4382 37.5815 77.3518 37.6147 77.2761 37.6659C77.2005 37.7171 77.1375 37.7849 77.092 37.8641C76.586 38.6361 77.42 40.1141 75.938 40.1501C74.848 40.1781 74.526 39.0301 73.65 38.6921C73.178 38.5081 72.644 39.6301 74.152 40.8921Z" fill="white"/>
<path d="M85.1299 37.1021C84.6299 37.0721 84.2339 36.4741 83.8459 36.2301C83.7595 36.1804 83.6604 36.1573 83.5609 36.1638C83.4614 36.1702 83.366 36.2059 83.2868 36.2664C83.2075 36.3269 83.1479 36.4094 83.1153 36.5036C83.0828 36.5979 83.0788 36.6996 83.1039 36.7961C83.2618 37.3176 83.5904 37.7709 84.0369 38.0832C84.4834 38.3955 85.0219 38.5487 85.5659 38.5181C86.1134 38.386 86.5879 38.0459 86.8889 37.5699C87.1898 37.0939 87.2935 36.5193 87.1779 35.9681C87.0779 35.0121 85.5779 35.0101 85.6759 35.9681C85.7199 36.3881 85.7419 37.1361 85.1299 37.1021Z" fill="white"/>
<path d="M79.3799 33.2681C79.0299 33.0081 78.684 33.4841 78.836 33.8121C79.754 35.7921 81.1499 37.5781 82.2559 39.4541C84.5779 43.3981 84.026 42.9061 82.822 42.9821C82.19 43.0221 81.558 43.0121 80.926 43.0481C80.718 43.0481 80.5186 43.1307 80.3716 43.2777C80.2246 43.4248 80.142 43.6242 80.142 43.8321C80.142 44.04 80.2246 44.2395 80.3716 44.3865C80.5186 44.5335 80.718 44.6161 80.926 44.6161C81.8348 44.6548 82.7453 44.626 83.65 44.5301C84.1837 44.5635 84.715 44.4345 85.174 44.1601C86.174 43.2821 85.264 41.6081 84.804 40.6741C83.5798 37.8268 81.7252 35.2945 79.3799 33.2681Z" fill="white"/>
<path d="M95.086 68.4481C92.952 67.5761 90.772 66.7921 88.55 66.1181C88.55 66.0961 88.572 66.0961 88.572 66.0741C88.926 65.4041 91.772 58.1721 91.992 57.5561C92.278 56.7301 90.928 56.1421 90.556 56.9561C89.494 59.2461 88.626 61.6361 87.702 63.9921C87.436 64.6661 87.302 65.5921 86.394 65.4741C85.835 65.3233 85.2945 65.1114 84.782 64.8421C79.2773 62.8337 74.022 60.1983 69.12 56.9881C68.29 56.5121 65.76 61.0441 64.872 62.4341C64.108 63.6341 65.942 63.2661 82.93 74.6761C83.2631 74.2637 83.6355 73.8846 84.042 73.5441C78.334 69.6661 72.496 65.9621 66.484 62.5441C67.268 61.2161 68.048 59.9061 68.728 58.5441C69.054 57.8841 67.6 58.3441 75.154 62.3341C78.7734 64.1537 82.4896 65.7741 86.286 67.1881C86.486 67.1881 86.43 66.9661 84.87 72.9401C85.4706 72.5137 86.1125 72.1485 86.786 71.8501C87.156 70.4501 87.528 69.0401 87.898 67.6501C95.752 69.9781 93.286 70.0901 96.742 70.0901C96.3971 66.3475 95.8631 62.6248 95.142 58.9361C94.974 58.1081 93.542 58.2821 93.638 59.1361C94.03 62.1881 94.586 65.3121 95.086 68.4481Z" fill="white"/>
<path d="M163.27 265.006C162.688 265.006 139.976 264.692 133.884 264.658C131.818 264.646 132.554 265.28 130.964 260.628C130.912 260.467 130.811 260.326 130.674 260.226C130.537 260.126 130.372 260.072 130.202 260.072C130.032 260.072 129.867 260.126 129.73 260.226C129.593 260.326 129.492 260.467 129.44 260.628C129.062 262.028 128.678 263.416 128.306 264.81C126.28 264.636 124.276 264.462 122.25 264.308C124.128 254.158 125.35 252.01 125.714 248.188C125.711 248.082 125.674 247.979 125.608 247.895C125.542 247.812 125.45 247.752 125.347 247.725C125.244 247.698 125.135 247.705 125.036 247.745C124.938 247.785 124.855 247.857 124.8 247.948C123.012 251.524 121.22 260.842 120.464 264.832C120.434 264.954 120.431 265.08 120.456 265.203C120.481 265.325 120.533 265.441 120.608 265.541C120.683 265.641 120.779 265.723 120.89 265.782C121.001 265.84 121.123 265.873 121.248 265.878C123.794 266.132 126.324 266.332 128.874 266.51C129.052 266.51 129.226 266.451 129.367 266.342C129.509 266.234 129.611 266.082 129.658 265.91C129.858 265.15 130.058 264.408 130.246 263.646C130.38 264.283 130.6 264.899 130.9 265.476C131.632 266.634 133.578 266.276 134.712 266.304C138.544 266.42 163.358 266.76 163.422 266.76C163.4 266.57 163.27 265.22 163.27 265.006Z" fill="white"/>
<path d="M141.66 251.216C140.615 249.854 139.173 248.849 137.534 248.338C137.746 246.434 138.334 241.006 138.548 238.99C143.412 239.274 148.858 239.59 152.814 239.802C153.038 239.799 153.252 239.708 153.411 239.549C153.57 239.391 153.66 239.176 153.664 238.952C153.664 201.592 153.034 183.538 156.082 166.586C158.042 169.396 159.98 172.206 161.942 174.986C161.81 163.724 161.692 152.2 161.68 140.83C161.682 140.17 161.904 139.529 162.31 139.008C162.716 138.488 163.284 138.117 163.924 137.954C160.342 131.614 154.392 121.296 147.26 120.678C146.002 120.595 144.739 120.743 143.534 121.114C144.27 120.257 144.899 119.313 145.408 118.304C148.86 111.54 147.254 103.868 145.494 96.5201C141.412 79.4601 135.062 69.9201 123.59 58.7921C121.21 56.4461 118.705 54.2315 116.084 52.1581C112.57 49.4641 108.684 47.7841 104.454 49.0961C102.04 49.8461 93.388 55.2961 95.5 56.6121C95.514 56.6761 97.54 65.6501 98.528 70.0521C99.3662 70.1085 100.184 70.3387 100.928 70.7281C101.504 71.0016 101.951 71.4883 102.175 72.0854C102.399 72.6825 102.382 73.3432 102.128 73.9281C102.342 73.9281 103.804 73.9821 104.198 74.0361C106.396 73.4787 108.668 73.2761 110.93 73.4361C111.626 73.4761 112.226 73.4361 112.716 74.0361C112.8 74.1239 112.847 74.2407 112.847 74.3621C112.847 74.4835 112.8 74.6003 112.716 74.6881C111.792 75.4661 111.64 74.7301 106.9 75.0881C107.158 75.299 107.369 75.5621 107.519 75.8602C107.668 76.1584 107.753 76.4848 107.767 76.818C107.782 77.1512 107.725 77.4837 107.602 77.7936C107.479 78.1035 107.291 78.3838 107.052 78.6161C107.15 78.7017 107.231 78.8048 107.292 78.9201C107.658 78.5541 108.692 78.6401 109.318 78.6161C111.246 78.5441 111.35 79.8541 109.318 79.8161C108.748 79.8546 108.175 79.8108 107.618 79.6861C107.743 80.3276 107.624 80.9926 107.286 81.5519C106.948 82.1111 106.414 82.5246 105.788 82.7121C105.906 82.9174 105.994 83.1382 106.05 83.3681C106.924 83.1254 107.811 82.9357 108.708 82.8001C108.818 82.7719 108.933 82.7691 109.045 82.792C109.156 82.8149 109.261 82.8628 109.351 82.9322C109.441 83.0016 109.515 83.0906 109.565 83.1924C109.616 83.2943 109.643 83.4063 109.644 83.5201C109.444 86.7881 115.088 88.6181 114.262 89.9881C116.418 88.6161 118.662 87.3761 120.906 86.1121C119.51 84.7839 118.663 82.9805 118.532 81.0581C118.08 76.9521 119.622 74.6581 118.684 72.9761C117.402 70.6861 113.87 70.7901 111.626 70.8201C110.269 70.8279 108.917 70.9882 107.596 71.2981C106.504 71.7419 105.332 71.957 104.154 71.9301C104.068 71.9041 103.988 71.8589 103.922 71.7979C103.855 71.737 103.803 71.6618 103.77 71.578C103.736 71.4942 103.722 71.4039 103.728 71.3139C103.735 71.2239 103.761 71.1365 103.806 71.0581C104.806 69.3281 109.264 68.9001 111.256 68.8581C113.762 68.8061 116.896 68.8161 118.946 70.4921C121.318 72.4321 120.6 74.9801 120.296 77.6381C119.987 78.9879 119.997 80.3912 120.325 81.7365C120.653 83.0819 121.29 84.3322 122.186 85.3881C122.49 85.2141 122.816 85.0401 123.122 84.8441C123.242 84.7704 123.381 84.7314 123.522 84.7314C123.663 84.7314 123.802 84.7704 123.922 84.8441C129.307 88.1731 134.142 92.3178 138.256 97.1301C139.677 98.5479 140.822 100.218 141.632 102.054C141.832 102.642 141.086 102.904 140.696 102.598C138.064 100.528 135.12 93.9721 123.486 86.5001C119.718 88.6341 115.972 90.9641 112.028 92.7301C111.828 92.7961 120.388 110.862 127.342 118.392C128.322 119.65 129.556 120.688 130.964 121.439C132.371 122.189 133.921 122.635 135.512 122.748C136.166 122.876 135.99 123.706 135.512 123.902C132.592 125.102 129.112 122.554 127.082 120.658C122.268 115.587 118.323 109.758 115.404 103.404C113.762 100.184 112.336 96.858 111.136 93.4481C111.144 92.891 111.281 92.3433 111.536 91.8481C112.262 91.3361 112.994 90.8481 113.736 90.3661C112.908 90.4761 112.316 89.8041 111.71 89.3221C109.952 88.1969 108.69 86.4438 108.18 84.4201C105.45 84.7621 106.232 84.3521 105.98 84.8561C105.124 86.5641 104.23 86.1761 101.864 86.6201C101.93 86.8201 103.97 99.9981 104.826 117.01C102.474 114.461 100.027 112.006 97.484 109.646C97.588 109.008 98.1599 101.192 98.2259 96.1401C98.2259 95.3941 97.4139 95.2401 96.8519 94.9861C96.9539 94.7861 98.0519 92.1381 98.334 91.3041C99.0434 89.3584 98.997 87.2173 98.204 85.3041C100.12 85.0661 102.058 84.8621 103.976 84.5641C104.694 84.4541 104.456 83.4221 103.824 83.3641C101.481 83.2146 99.1287 83.3246 96.8099 83.6921C96.1979 83.7721 95.6359 84.4081 96.0459 85.0201C98.2579 88.3081 96.216 91.7581 95.11 94.2781C91.144 92.7901 86.8579 91.5361 86.6579 91.4901C88.0739 85.5521 83.6119 80.9741 86.0039 77.4601C87.8759 74.7141 93.294 74.0181 96.592 73.9321C97.8198 74.11 99.0707 74.042 100.272 73.7321C100.364 73.6784 100.442 73.6042 100.5 73.5153C100.558 73.4264 100.595 73.3253 100.608 73.2198C100.621 73.1143 100.609 73.0073 100.574 72.9071C100.538 72.8069 100.48 72.7162 100.404 72.6421C99.2435 71.9747 97.9005 71.6945 96.57 71.8421C92.7439 71.7121 87.5239 72.5601 84.7839 75.3281C83.8818 76.429 83.2876 77.7494 83.0621 79.1548C82.8365 80.5601 82.9876 82.0002 83.5 83.3281C84.762 88.1381 84.738 87.3281 84.566 91.5181C84.4083 91.5916 84.2616 91.6865 84.1299 91.8001C83.8139 91.4001 68.5019 70.0541 65.07 65.0501C59.3559 56.7161 61.5279 59.6961 60.5859 58.3881C60.0019 57.5781 58.598 57.8961 57.664 57.9881C48.196 58.9521 40.3379 66.3881 40.1479 82.1021C39.9199 101.226 44.136 129.732 59.232 141.356C62.9995 144.35 67.3127 146.584 71.9319 147.934C72.188 148.504 72.4519 149.078 72.7139 149.65C77.3139 148.764 83.738 148.564 94.98 148.304C110.852 147.938 128.88 146.398 135.38 160.938C139.618 158.637 143.61 155.907 147.292 152.792C147.387 152.702 147.5 152.635 147.624 152.594C147.748 152.554 147.88 152.542 148.009 152.558C148.139 152.575 148.263 152.62 148.372 152.691C148.482 152.761 148.575 152.855 148.644 152.966C150.979 156.041 153.111 159.264 155.026 162.616C155.378 163.334 154.412 164.23 153.85 163.532C151.646 160.696 149.595 157.744 147.706 154.688C144.233 157.843 140.202 160.322 135.82 161.998C138.724 169.548 137.82 179.398 135.726 189.586C135.526 190.566 133.614 199.42 132.37 199.714C130.901 200.068 129.409 200.315 127.904 200.452C125.436 213.102 122.812 225.652 122.198 237.206C122.204 237.435 122.297 237.653 122.459 237.815C122.621 237.977 122.839 238.071 123.068 238.076C124.722 238.198 126.38 238.276 128.058 238.36C127.948 239.1 127.408 243.282 127.23 244.634C126.994 245.821 126.855 247.025 126.816 248.234C124.478 248.494 129.376 255.364 133.216 252.656C135.884 250.776 136.278 248.726 139.642 252.09C142.422 255.21 146.15 257.329 150.252 258.124C154.634 259.324 161.57 260.6 162.82 260.912C162.734 260.258 162.69 259.582 162.668 258.93C154.248 256.962 146.486 256.284 141.66 251.216ZM62.5199 89.6441C66.4199 77.3341 66.288 78.3201 66.178 78.1201C61.4541 76.8499 56.6508 75.8964 51.7999 75.2661C51.3419 75.2041 50.8659 74.8101 51.0579 74.2861C52.7391 69.4892 54.801 64.8344 57.2239 60.3661C57.5299 59.8241 58.49 60.1941 58.248 60.8021C56.49 65.2021 54.544 69.4721 52.866 73.8721C57.136 74.5101 59.266 74.8921 63.758 75.8541C65.934 76.3221 68.2559 76.3941 67.7239 78.5561C67.5979 79.0661 64.3039 89.3121 64.2379 89.5141C68.4408 91.9158 72.4797 94.5937 76.328 97.5301C76.702 97.9641 76.3479 98.8421 75.7279 98.5981C73.5421 97.4191 71.4452 96.0823 69.454 94.5981C62.93 90.4221 62.2799 90.5981 62.5199 89.6441ZM71.72 119.99C70.078 124.86 69.942 127.104 69.106 128.79C68.824 129.358 68.0599 129.03 68.0159 128.508C67.8159 126.226 69.864 119.892 70.652 117.788C69.298 116.886 67.838 113.33 67.276 111.974C66.2684 110.109 65.8434 107.984 66.056 105.874C66.1719 105.352 66.9299 105.502 66.9499 106.004C67.0899 109.636 70.7639 115.194 71.2839 116.178C74.3943 108.428 78.1467 100.951 82.5019 93.8261C82.5974 93.6643 82.7533 93.5471 82.9352 93.5002C83.1171 93.4533 83.3102 93.4806 83.472 93.5761C83.6337 93.6716 83.751 93.8274 83.7978 94.0093C83.8447 94.1912 83.8174 94.3843 83.722 94.5461C81.8419 98.9001 75.6999 108.158 71.7119 119.988L71.72 119.99ZM96.466 119.358C95.108 126.744 92.236 136.008 87.622 141.904C84.552 145.826 79.49 149.134 74.356 147.372C74.2451 147.338 74.1499 147.265 74.0875 147.168C74.025 147.07 73.9993 146.953 74.0149 146.838C74.0305 146.723 74.0864 146.617 74.1727 146.54C74.2589 146.462 74.3699 146.418 74.486 146.414C80.354 146.28 84.736 144.766 89.038 136.458C91.6489 131.132 93.5182 125.473 94.594 119.64C95.422 115.24 95.16 114.89 95.7259 113.64C95.7987 113.521 95.9045 113.425 96.0305 113.365C96.1565 113.305 96.2973 113.283 96.4357 113.301C96.5741 113.32 96.7041 113.378 96.81 113.469C96.9159 113.56 96.993 113.68 97.0319 113.814C97.1877 115.682 96.9931 117.562 96.458 119.358H96.466ZM136.114 125.74C129.911 128.339 123.896 131.367 118.114 134.802C108.078 141.136 104.914 145.502 102.256 147.176C102.137 147.241 102 147.266 101.866 147.247C101.732 147.228 101.608 147.166 101.512 147.07C101.416 146.974 101.354 146.85 101.335 146.716C101.316 146.582 101.341 146.445 101.406 146.326C103.75 142.552 120.176 128.854 135.694 124.76C136.258 124.61 136.674 125.484 136.106 125.74H136.114ZM135.73 248.34C134.284 248.672 133.584 249.496 131.778 251.186C130.512 251.818 128.914 250.226 127.966 249.158C128.423 247.923 128.667 246.619 128.686 245.302C128.872 243.798 129.404 239.246 129.486 238.462C131.274 238.558 133.928 238.71 136.906 238.884C136.699 242.06 136.303 245.221 135.722 248.35L135.73 248.34Z" fill="white"/>
<path d="M122.034 149.856C114.506 147.564 105.734 148.082 94.978 148.33C83.736 148.59 77.318 148.79 72.712 149.676C72.45 149.104 72.186 148.53 71.93 147.96C67.3112 146.612 62.998 144.38 59.23 141.388C44.09 129.736 39.918 101.14 40.146 82.1342C40.336 66.4122 48.194 58.9842 57.662 58.0202C60.796 57.7022 59.888 57.4482 63.136 62.2462C63.3243 61.6451 63.6086 61.0784 63.978 60.5682C64.8816 59.0393 65.8712 57.5629 66.942 56.1462C67.2282 55.7301 67.6431 55.4196 68.123 55.2625C68.6029 55.1053 69.1211 55.1101 69.598 55.2762C69.552 54.5782 69.552 54.2522 69.316 52.4762C68.3621 52.3686 67.4421 52.0589 66.6173 51.5676C65.7926 51.0764 65.0821 50.4149 64.5332 49.6274C63.9843 48.8398 63.6097 47.9443 63.4343 47.0005C63.2589 46.0567 63.2867 45.0863 63.516 44.1542C63.1333 44.0232 62.7937 43.7902 62.534 43.4802C56.288 35.9582 54.014 28.7962 56.522 22.9802C57.2011 21.4678 58.2699 20.163 59.619 19.1994C60.9681 18.2358 62.549 17.648 64.2 17.4962C67.372 17.0422 70.654 17.5722 73.2 16.2762C75.546 15.0762 77.928 12.8762 80.322 11.4762C88.322 6.78416 94.412 12.6362 92.348 19.6462C91.4192 22.0858 90.139 24.3767 88.548 26.4462C91.058 32.1482 94.712 41.4902 94.866 47.6862C95.0131 49.074 94.7712 50.4754 94.1672 51.7336C93.5632 52.9918 92.6209 54.057 91.446 54.8102C91.9601 54.8647 92.447 55.0691 92.8459 55.398C93.2449 55.7269 93.5384 56.1658 93.69 56.6602C94.3052 56.4854 94.9629 56.5386 95.542 56.8102L95.498 56.6102C93.386 55.2902 102.038 49.8442 104.452 49.0942C111.556 46.8942 117.852 53.2362 123.588 58.7902C123.002 54.3232 122.162 49.8934 121.072 45.5222C117.19 30.1322 107.872 9.49016 93.45 3.04216C68.534 -8.09184 14.098 12.6942 2.89596 43.2882C-3.03004 59.4702 1.25396 84.6542 5.81596 101.278C11.2449 120.443 18.7612 138.954 28.23 156.478C40.618 179.814 55.404 200.112 82.06 201.278C81.972 208.226 82.168 232.014 82.26 235.064C78.432 233.332 75.236 232.04 66.814 228.508C64.9303 227.616 62.959 226.923 60.932 226.438C57.84 225.848 54.05 226.548 52.394 229.532C52.053 230.203 51.8534 230.936 51.8078 231.687C51.7622 232.438 51.8715 233.19 52.1288 233.897C52.3861 234.604 52.786 235.25 53.3037 235.796C53.8213 236.342 54.4457 236.776 55.138 237.07C55.8477 237.321 56.6023 237.42 57.3527 237.36C58.1031 237.301 58.8326 237.084 59.4939 236.724C60.1553 236.365 60.7336 235.87 61.1915 235.273C61.6494 234.675 61.9766 233.988 62.152 233.256C68.274 235.304 74.418 237.33 80.626 239.056C74.9116 241.825 69.4392 245.068 64.266 248.75C61.742 250.846 59.814 254.222 61.216 257.508C62.342 260.146 66.14 262.708 68.862 260.666C70.878 259.148 72.062 254.766 69.494 252.954C74.4799 248.362 79.7706 244.112 85.33 240.234C95.062 242.51 104.662 243.676 112.8 247.234C110.262 251.578 111.916 254.748 114.848 255.556C118.448 256.556 121.412 253.464 121.798 250.088C122.242 246.19 119.198 242.85 115.916 241.244C111.542 239.483 106.932 238.375 102.236 237.954C98.488 237.372 94.698 236.908 90.93 236.554C95.264 233.788 99.752 231.26 104.348 228.93C104.516 229.335 104.772 229.696 105.099 229.988C105.425 230.28 105.813 230.494 106.234 230.615C106.655 230.737 107.098 230.761 107.529 230.688C107.961 230.615 108.371 230.445 108.728 230.192C109.201 229.76 109.559 229.216 109.77 228.611C109.981 228.006 110.038 227.358 109.937 226.725C109.835 226.092 109.578 225.495 109.188 224.986C108.799 224.477 108.288 224.073 107.704 223.81C104.678 222.21 101.304 223.748 98.62 225.314C94.9388 227.419 91.4471 229.838 88.184 232.546C88.206 227.732 88.162 209.89 88.25 201.568C95.502 201.928 124.806 201.532 132.362 199.738C133.606 199.444 135.514 190.59 135.718 189.61C139.37 171.894 139.386 155.138 122.034 149.856ZM71.594 149.914C65.6176 151.234 59.3643 150.289 54.044 147.264C40.22 140.138 30.3 120.158 24.68 105.634C20.5452 94.9546 17.6789 83.8263 16.14 72.4782C14.644 61.4122 13.846 49.9722 18.384 39.4982C22.5262 30.2359 29.24 22.3572 37.728 16.7982C37.8244 16.7437 37.9371 16.7255 38.0458 16.7469C38.1545 16.7682 38.2519 16.8278 38.3205 16.9148C38.3891 17.0017 38.4243 17.1103 38.4198 17.221C38.4153 17.3317 38.3714 17.4371 38.296 17.5182C34.172 21.1978 30.3293 25.1809 26.8 29.4342C19.9536 37.8848 16.5277 48.597 17.2 59.4522C18.178 88.6822 31.094 120.652 43.972 135.852C55.732 149.728 65.83 147.884 70.986 148.574C71.1342 148.589 71.2761 148.642 71.3973 148.729C71.5186 148.816 71.615 148.933 71.6771 149.068C71.7392 149.204 71.7647 149.353 71.7512 149.501C71.7377 149.65 71.6855 149.792 71.6 149.914H71.594Z" fill="#38A1FF"/>
</svg>
